<svg xmlns="http://www.w3.org/2000/svg" version="1.1" xmlns:xlink="http://www.w3.org/1999/xlink" xmlns:svgjs="http://svgjs.com/svgjs" viewBox="0 0 640 400" data-background-color="#ffffff" preserveAspectRatio="xMidYMid meet" height="400" width="640"><rect width="640" height="400" x="0" y="0" opacity="1" fill="#ffffff" data-fill-palette-color="background" id="background"></rect><g id="tight-bounds" transform="matrix(1,0,0,1,122.24000000000001,142.11039981807994)"><svg viewBox="0 0 395.52 115.77920036384013" height="115.77920036384013" width="395.52"><g><svg viewBox="0 0 397.4976 116.35809636565934" height="115.77920036384013" width="395.52"><g><rect width="397.4976" height="3.5638948100523873" x="0" y="63.945294601090026" fill="#ed3b43" opacity="1" stroke-width="0" stroke="transparent" fill-opacity="1" class="rect-borderrectangle-0" data-fill-palette-color="primary" rx="1%" id="borderrectangle-0" data-palette-color="#ed3b43"></rect></g><g transform="matrix(1,0,0,1,0.9887999999999693,76.83875697672458)"><svg viewBox="0 0 395.52000000000004 39.51933938893477" height="39.51933938893477" width="395.52000000000004"><g><svg viewBox="0 0 395.52000000000004 39.51933938893477" height="39.51933938893477" width="395.52000000000004"><g><svg viewBox="0 0 395.52000000000004 39.51933938893477" height="39.51933938893477" width="395.52000000000004"><g transform="matrix(1,0,0,1,0,0)"><svg width="395.52000000000004" viewBox="2.15 -34.99 354.76000000000005 35.45" height="39.51933938893477" data-palette-color="#ed3b43"><g class="undefined-text-0" data-fill-palette-color="primary" id="text-0"><path d="M32.32-5.79L32.32-5.79Q33.33-5.79 33.33-4.66L33.33-4.66Q33.33-3.74 31.91-2.81L31.91-2.81Q29.27-1.07 27.47-0.54L27.47-0.54Q24.07 0.46 20.34 0.46 16.6 0.46 13.15-0.87 9.69-2.2 7.25-4.59L7.25-4.59Q2.15-9.62 2.15-17.58L2.15-17.58Q2.15-21.41 3.59-24.62 5.03-27.83 7.57-30.13L7.57-30.13Q12.94-34.99 21.07-34.99L21.07-34.99Q25.63-34.99 29.1-33.42L29.1-33.42Q32.79-31.79 32.79-30.64L32.79-30.64Q32.79-30.18 32.48-29.83 32.18-29.49 31.79-29.49L31.79-29.49Q31.01-29.49 30.37-30.19 29.74-30.88 28.65-31.45 27.56-32.01 26.27-32.42L26.27-32.42Q23.63-33.23 21.47-33.23 19.31-33.23 17.9-32.93L17.9-32.93 17.9-1.64Q19.6-1.34 20.92-1.34 22.24-1.34 23.61-1.51 24.98-1.68 26.29-2.08L26.29-2.08Q29.25-2.95 30.74-4.66L30.74-4.66Q31.27-5.3 31.59-5.54 31.91-5.79 32.32-5.79ZM59.23-26.51L59.23-26.51Q67.82-26.51 67.82-18.16L67.82-18.16 67.82 0 57.32 0 57.32-23.75Q56.88-24.05 56.16-24.05 55.44-24.05 54.66-23.71 53.88-23.36 53.02-22.75L53.02-22.75Q51.19-21.41 49.78-19.38L49.78-19.38 49.78 0 39.28 0 39.28-34.55 49.78-34.55 49.78-21.95Q53.95-26.51 59.23-26.51ZM92.13 0L92.13-1.61Q89.01 0.46 85.2 0.46L85.2 0.46Q80.15 0.46 77.09-2.08L77.09-2.08Q73.92-4.69 73.92-9.33L73.92-9.33Q73.92-13.43 77.07-16.06L77.07-16.06Q80.29-18.73 85.54-18.73L85.54-18.73Q89.06-18.73 92.13-17.38L92.13-17.38 92.13-24.1Q89.91-24.73 88.22-24.73 86.52-24.73 85.35-24.58 84.17-24.44 83.12-24.15L83.12-24.15Q80.85-23.51 79.68-22.44L79.68-22.44Q79-21.8 78.44-21.8 77.88-21.8 77.58-22.08 77.29-22.36 77.29-22.71 77.29-23.05 77.41-23.33 77.53-23.61 77.88-23.9L77.88-23.9Q78.61-24.54 80.32-25.17L80.32-25.17Q83.86-26.51 87.42-26.51L87.42-26.51Q98.26-26.51 101.26-21.34L101.26-21.34Q102.58-19.04 102.58-15.31L102.58-15.31 102.58 0 92.13 0ZM92.13-3.71L92.13-15.48Q89.06-16.97 86.01-16.97L86.01-16.97Q85.52-16.97 85.08-16.89L85.08-16.89 85.08-1.37Q85.2-1.34 85.35-1.34 85.49-1.34 85.64-1.34L85.64-1.34Q88.98-1.34 92.13-3.71L92.13-3.71ZM110.22 0L110.22-34.55 120.72-34.55 120.72 0 110.22 0ZM148.65-26.51L148.65-26.51Q157.24-26.51 157.24-18.16L157.24-18.16 157.24 0 146.74 0 146.74-23.75Q146.3-24.05 145.58-24.05 144.86-24.05 144.08-23.71 143.3-23.36 142.45-22.75L142.45-22.75Q140.62-21.41 139.2-19.38L139.2-19.38 139.2 0 128.7 0 128.7-34.55 139.2-34.55 139.2-21.95Q143.37-26.51 148.65-26.51ZM181.55 0L181.55-1.61Q178.43 0.46 174.62 0.46L174.62 0.46Q169.57 0.46 166.52-2.08L166.52-2.08Q163.34-4.69 163.34-9.33L163.34-9.33Q163.34-13.43 166.49-16.06L166.49-16.06Q169.71-18.73 174.96-18.73L174.96-18.73Q178.48-18.73 181.55-17.38L181.55-17.38 181.55-24.1Q179.33-24.73 177.64-24.73 175.94-24.73 174.77-24.58 173.6-24.44 172.55-24.15L172.55-24.15Q170.28-23.51 169.1-22.44L169.1-22.44Q168.42-21.8 167.86-21.8 167.3-21.8 167-22.08 166.71-22.36 166.71-22.71 166.71-23.05 166.83-23.33 166.96-23.61 167.3-23.9L167.3-23.9Q168.03-24.54 169.74-25.17L169.74-25.17Q173.28-26.51 176.84-26.51L176.84-26.51Q187.68-26.51 190.69-21.34L190.69-21.34Q192-19.04 192-15.31L192-15.31 192 0 181.55 0ZM181.55-3.71L181.55-15.48Q178.48-16.97 175.43-16.97L175.43-16.97Q174.94-16.97 174.5-16.89L174.5-16.89 174.5-1.37Q174.62-1.34 174.77-1.34 174.91-1.34 175.06-1.34L175.06-1.34Q178.41-1.34 181.55-3.71L181.55-3.71ZM209.68 0.46L209.68 0.46Q200.11 0.46 200.11-8.28L200.11-8.28 200.08-24.29 197.28-24.17Q195.96-24.17 195.96-25.17 195.96-26.17 197.37-26.17L197.37-26.17 199.72-26.07 200.08-26.07 200.08-29.86 210.56-34.55 210.56-26.07 213.83-26.07 216.15-26.17Q217.59-26.17 217.59-25.15L217.59-25.15Q217.59-24.68 217.18-24.43 216.78-24.17 216.27-24.17L216.27-24.17 213.24-24.29 210.56-24.29 210.56-1.34Q213.41-1.39 215.32-2.98L215.32-2.98Q216.22-3.66 216.6-4.74 216.98-5.81 217.28-6.12 217.59-6.42 218-6.42L218-6.42Q218.42-6.42 218.71-6.09 219-5.76 219-5.31 219-4.86 218.76-4.31 218.52-3.76 218.03-3.15L218.03-3.15Q216.93-1.78 215.49-0.98L215.49-0.98Q212.88 0.46 209.68 0.46ZM239.75 0.46L239.75 0.46Q236.36 0.46 233.19-1.07L233.19-1.07 233.19 0 223.15 0 223.15-34.55 233.19-34.55 233.19-24.83Q236.29-26.51 239.68-26.51 243.07-26.51 245.64-25.51 248.2-24.51 250.03-22.75L250.03-22.75Q253.82-19.04 253.82-13.26L253.82-13.26Q253.82-7.42 250.08-3.56L250.08-3.56Q246.22 0.46 239.75 0.46ZM239.68-24.73L239.68-24.73Q236.07-24.73 233.19-22.73L233.19-22.73 233.19-3.15Q236.38-1.34 240.36-1.34L240.36-1.34 241-1.34Q241.29-1.34 241.56-1.39L241.56-1.39 241.56-24.58Q240.63-24.73 239.68-24.73ZM280.03-26.51L280.03-26.51Q288.63-26.51 288.63-18.16L288.63-18.16 288.63 0 278.13 0 278.13-23.75Q277.69-24.05 276.97-24.05 276.25-24.05 275.47-23.71 274.69-23.36 273.83-22.75L273.83-22.75Q272-21.41 270.59-19.38L270.59-19.38 270.59 0 260.09 0 260.09-34.55 270.59-34.55 270.59-21.95Q274.76-26.51 280.03-26.51ZM319.26-5.93L319.26-5.93Q320.22-5.93 320.22-5.05L320.22-5.05Q320.22-4.39 319.36-3.49L319.36-3.49Q315.5 0.46 308.79 0.46L308.79 0.46Q302.76 0.46 298.63-3.17L298.63-3.17Q294.36-6.96 294.36-12.74L294.36-12.74Q294.36-18.65 298.22-22.46L298.22-22.46Q302.3-26.51 309.06-26.51L309.06-26.51Q314.48-26.51 318.17-23.22L318.17-23.22Q322.15-19.68 322.15-13.92L322.15-13.92Q322.15-13.09 322.1-12.16L322.1-12.16 305.98-12.16 305.98-1.68Q307.64-1.34 309.72-1.34L309.72-1.34Q314.11-1.34 317.21-4.25L317.21-4.25Q317.85-4.88 318.12-5.25L318.12-5.25Q318.68-5.93 319.26-5.93ZM312.75-13.94L312.75-24.27Q311.16-24.73 309.16-24.73 307.16-24.73 305.98-24.46L305.98-24.46 305.98-13.94 312.75-13.94ZM346.41 0L346.41-23.41Q345.8-23.8 345.09-23.8 344.38-23.8 343.63-23.47 342.87-23.14 342.04-22.56L342.04-22.56Q340.31-21.31 338.84-19.24L338.84-19.24 338.84 0 328.34 0 328.34-26.07 338.84-26.07 338.84-21.9Q343.02-26.51 348.29-26.51L348.29-26.51Q356.91-26.51 356.91-18.16L356.91-18.16 356.91 0 346.41 0Z" fill="#ed3b43" data-fill-palette-color="primary"></path></g></svg></g></svg></g></svg></g></svg></g><g transform="matrix(1,0,0,1,142.47177519216484,0)"><svg viewBox="0 0 112.55404961567028 54.61572703550786" height="54.61572703550786" width="112.55404961567028"><g><svg version="1.1" xmlns="http://www.w3.org/2000/svg" xmlns:xlink="http://www.w3.org/1999/xlink" x="0" y="0" viewBox="-5 20.737000000000002 100 48.52400000000001" enable-background="new -5 20.737 100 48.524" xml:space="preserve" height="54.61572703550786" width="112.55404961567028" class="icon-icon-0" fill="#fee717" data-fill-palette-color="accent" id="icon-0"><rect x="-5" y="64.739" width="100" height="4.522" fill="#fee717" data-fill-palette-color="accent"></rect><polygon points="73.607,58.826 16.044,58.826 17.435,51.87 72.216,51.87 " fill="#fee717" data-fill-palette-color="accent"></polygon><path d="M45 47.085h26.174c0 0-5.13-26.348-14.435-26.348-5.479 0-5.646 3.413-11.739 3.413-5.993 0-6.262-3.413-11.739-3.413-9.305 0-14.435 26.348-14.435 26.348H45z" fill="#fee717" data-fill-palette-color="accent"></path></svg></g></svg></g><g></g></svg></g></svg><rect width="395.52" height="115.77920036384013" fill="transparent" stroke="transparent"></rect></g><defs></defs></svg>